HIERARCHY
ROOT hip
{
  OFFSET 0.0 0.0 0.0
  CHANNELS 6 Xposition Yposition Zposition Zrotation Yrotation Xrotation
  JOINT torso
  {
    OFFSET 0.0 0.0 0.0
    CHANNELS 3 Zrotation Xrotation Yrotation
    JOINT neck
    {
      OFFSET -8.059630999999968 325.56260699999996 64.6221310000002
      CHANNELS 3 Zrotation Xrotation Yrotation
      JOINT head
      {
        OFFSET 34.685424000000125 375.1179809999999 232.79357900000002
        CHANNELS 3 Zrotation Xrotation Yrotation
        End Site
        {
          OFFSET 0.0 0.0 0.0
        }
      }
    }
    JOINT left_collar
    {
      OFFSET -8.059630999999968 325.56260699999996 64.6221310000002
      CHANNELS 3 Zrotation Xrotation Yrotation
      JOINT left_upper_arm
      {
        OFFSET -124.124665 -15.370300999999927 25.582641999999964
        CHANNELS 3 Zrotation Xrotation Yrotation
        JOINT left_forearm
        {
          OFFSET -268.19913399999996 105.06054699999993 114.74548300000004
          CHANNELS 3 Zrotation Xrotation Yrotation
          JOINT left_hand
          {
            OFFSET -235.82003099999991 -10.198180999999977 -38.67455999999993
            CHANNELS 3 Zrotation Xrotation Yrotation
            End Site
            {
              OFFSET 0.0 0.0 0.0
            }
          }
        }
      }
    }
    JOINT right_collar
    {
      OFFSET -8.059630999999968 325.56260699999996 64.6221310000002
      CHANNELS 3 Zrotation Xrotation Yrotation
      JOINT right_upper_arm
      {
        OFFSET 162.73931899999997 -2.8598030000000563 26.244994999999903
        CHANNELS 3 Zrotation Xrotation Yrotation
        JOINT right_forearm
        {
          OFFSET 284.6506340000001 103.07031299999994 145.84521499999994
          CHANNELS 3 Zrotation Xrotation Yrotation
          JOINT right_hand
          {
            OFFSET 226.332337 -12.198241999999937 -49.27258299999994
            CHANNELS 3 Zrotation Xrotation Yrotation
            End Site
            {
              OFFSET 0.0 0.0 0.0
            }
          }
        }
      }
    }
  }
}
MOTION
Frames: 13
Frame Time: 0.01
609.1943308332404 146.17596307476109 105.269898529237 -14.529154983875832 -20.53706787441331 3.3033170126923665 0.3402556924667301 0.40193078783780734 -0.056438551314298965 8.224272351930653 0.2542190585997738 -5.087712553937293 0.0 0.0 0.0 0.5983613390268259 -0.7230225190057462 6.614055225807053 20.118043308488833 -26.978514795091765 -92.73042321470061 -24.493220076599396 -2.528205802690627 -37.55910071235857 0.0 0.0 0.0 -3.983930063385625 -0.1534419709009147 -15.179800959975413 -45.30640888791186 23.417033302967113 17.416856729158535 -26.34471121528341 4.1565850450421795 34.43603613479176 0.0 0.0 0.0
609.0676263421028 146.2384803359124 105.28200936430972 -14.528198536591436 -20.512719149000066 3.2687409511079357 0.32708458003334534 0.4010808531599608 -0.053891619231730865 8.247462880375384 0.23996118169731193 -5.101248333383564 0.0 0.0 0.0 0.5856732558916262 -0.7142104345334742 6.529856831465958 20.130127647880762 -26.83209257388845 -92.61509083124132 -24.364474862034626 -2.556763435002383 -37.8454546096755 0.0 0.0 0.0 -3.983289428146046 -0.15268413041315432 -15.164880885226111 -44.99107743727902 23.174962312301563 17.093213683472424 -26.898596387416763 4.308592118642671 34.773496751221316 0.0 0.0 0.0
608.9345016993364 146.30047554883222 105.29639830333748 -14.526128488128764 -20.487620829431666 3.230224471847429 0.3150151035546124 0.39714220431487346 -0.05164425730771982 8.267940829102432 0.22597629668491714 -5.113137395624699 0.0 0.0 0.0 0.5728907304002465 -0.7061558254572509 6.45139902514395 20.14030248956335 -26.692596669278707 -92.50131165944794 -24.252906133574598 -2.593361516486101 -38.16373360931312 0.0 0.0 0.0 -3.9818750192147196 -0.15139829963855225 -15.139383563245525 -44.61865805939575 22.90582986165489 16.810039666727526 -27.428971689657924 4.4677881301313604 35.130252047709774 0.0 0.0 0.0
608.7959602175891 146.36111720190624 105.31312865138278 -14.522785815711377 -20.462036974585523 3.1878368912147326 0.30409661055831383 0.39036770476758753 -0.04969834860017371 8.28556585098335 0.2121486162607836 -5.123287553742605 0.0 0.0 0.0 0.5599779228438636 -0.6989104758318933 6.379060022238525 20.1489214901094 -26.5600952967667 -92.39008436402533 -24.159405673426694 -2.6375139362344773 -38.50987591998821 0.0 0.0 0.0 -3.9798002705722415 -0.14963220366635968 -15.104272060791146 -44.191317885143555 22.610721207670508 16.566246306452154 -27.928313028329683 4.633736656893705 35.507252414040295 0.0 0.0 0.0
608.6531104480415 146.4195241896482 105.33216680772938 -14.518060954272974 -20.436242963775804 3.141736479855811 0.2943679868843999 0.38106960956575187 -0.048052382952964455 8.300264656365217 0.1983344369066039 -5.131646438571958 0.0 0.0 0.0 0.5469250306198196 -0.6925030758289851 6.313066859741157 20.156422885753052 -26.434436568160898 -92.28240245435609 -24.084495295895493 -2.688542723480515 -38.878808282283764 0.0 0.0 0.0 -3.977162892217236 -0.14744390502606572 -15.060696987897455 -43.712088468549894 22.29098862239313 16.359859361269113 -28.389175420307367 4.805762551931021 35.90506948865626 0.0 0.0 0.0
608.5072059834357 146.474775038895 105.35338512941838 -14.511888388942126 -20.410523991678208 3.0921527125735926 0.28585645771807244 0.3696116384206079 -0.04670144166086968 8.312030057837726 0.18437159130816225 -5.138201373330024 0.0 0.0 0.0 0.5337566726497707 -0.6869387960464512 6.253502145286019 20.16331153668511 -26.31528931840262 -92.17924722525609 -24.028325549973182 -2.7455803255175053 -39.26451873847497 0.0 0.0 0.0 -3.9740386968261743 -0.14490027872395558 -15.009966146026922 -43.18481583338687 21.9482716530119 16.18813553365835 -28.804315939664015 4.982893942221142 36.3237453760926 0.0 0.0 0.0
608.3596826370526 146.5259193290046 105.37656784347863 -14.504239263581098 -20.385174068505208 3.0393653915805525 0.2785757326462265 0.35639979475792066 -0.04563707010466318 8.320918604206406 0.17009050553879979 -5.142978449355809 0.0 0.0 0.0 0.5205391961334741 -0.6821995127368782 6.200314677642304 20.17013708355825 -26.202185217762516 -92.08157329576795 -23.99067946817791 -2.8075766514007263 -39.66017596791757 0.0 0.0 0.0 -3.970476699947899 -0.14207525833708357 -14.953509582080663 -42.61408550885057 21.58451157972323 16.047703490225377 -29.16682529881174 5.163813420164642 36.76266100651411 0.0 0.0 0.0
608.2121891070293 146.57199158197608 105.40141937837285 -14.495112566812747 -20.360495115411226 2.983681846589362 0.27252372170008754 0.34187204276323385 -0.044847080731220186 8.327046828247365 0.15532617824630648 -5.146040789683058 0.0 0.0 0.0 0.507386019839139 -0.6782447258241032 6.153333136884632 20.177468985933842 -26.09455979037469 -91.99028621563117 -23.97098155297362 -2.8733122958833803 -40.05829649510295 0.0 0.0 0.0 -3.966495841840135 -0.13904788519924563 -14.892840845502377 -42.00512477777678 21.201956311573042 15.934720370656242 -29.47026677028856 5.346825321494336 37.22043314384439 0.0 0.0 0.0
608.0666072911888 146.61202777066362 105.42757440144638 -14.484525559470994 -20.336795728252426 2.9254136700265976 0.2676801170106666 0.32648702847259986 -0.044315341125175094 8.33058616737781 0.13993031638333045 -5.147486005060204 0.0 0.0 0.0 0.4944602098290317 -0.6750131787814307 6.11228189628537 20.185869409640073 -25.99179046761406 -91.90621251672341 -23.9683121229352 -2.9414192542454582 -40.45095801369768 0.0 0.0 0.0 -3.962083721296123 -0.13590020142520295 -14.829515617863693 -41.36368539755317 20.803152515211004 15.845034704015484 -29.708819331984397 5.529845301699094 37.694847443276 0.0 0.0 0.0
607.9250587191336 146.64508443247732 105.45460881249477 -14.472504188556679 -20.314389212469038 2.864854668736051 0.26400417646772023 0.31071212212339894 -0.04402160897587677 8.331756681487795 0.12378283392013846 -5.147442885305175 0.0 0.0 0.0 0.48197363650212743 -0.6724251491994054 6.0767979008470405 20.195865096640834 -25.893230459846407 -91.83006359416912 -23.981427160535667 -3.0104101488801835 -40.83005358242634 0.0 0.0 0.0 -3.957197734938673 -0.13271503771820017 -14.765089234537752 -40.69591102661619 20.39092278657799 15.774346769532253 -29.87742010679419 5.710416941436049 38.18283243246975 0.0 0.0 0.0
607.7898941215926 146.67026018291537 105.48205096925624 -14.459074271767177 -20.293590566790883 2.8022618386061966 0.26143305473820483 0.29501115741594314 -0.043941476170978135 8.330819771528102 0.10680194216214159 -5.146067417446234 0.0 0.0 0.0 0.470182267517208 -0.670385338928003 6.046447521467486 20.207919482711908 -25.79823794977664 -91.76239581919589 -24.008783912679526 -3.078716503650908 -41.18757784329304 0.0 0.0 0.0 -3.9517689442805684 -0.12957375731009005 -14.70107487379024 -40.00819440123586 19.968327041823713 15.718358087774602 -29.97189964456554 5.885757922579483 38.680476572216214 0.0 0.0 0.0
607.6636639597486 146.68671920915 105.50939252502704 -14.444254203158707 -20.27471220381767 2.7378410958354578 0.25988099584699625 0.2798323165656762 -0.044046477187688456 8.328070161520856 0.08895213634388892 -5.143538260200526 0.0 0.0 0.0 0.4593774150577956 -0.6687862613393389 6.020742394174998 20.222406409758612 -25.70620080244423 -91.7035701844029 -24.048572648841354 -3.1447359374010935 -41.515933092218596 0.0 0.0 0.0 -3.9457088240774363 -0.12655402545902175 -14.638904262403885 -39.30702986415157 19.53860885693191 15.672902935042192 -29.989102602834087 6.052835617070324 39.18308785109084 0.0 0.0 0.0
607.5490687799337 146.69371611159295 105.53609843956474 -14.428049807207824 -20.258058325341665 2.671739163306518 0.25923962867216455 0.2655966243779838 -0.044304402700152096 8.323827419396897 0.07024951786778626 -5.140051816550069 0.0 0.0 0.0 0.44987309087895094 -0.6675120037274888 5.999153526408777 20.239586787901203 -25.616557553388876 -91.65371540544696 -24.098755106028047 -3.2068873456094376 -41.808240428889235 0.0 0.0 0.0 -3.9389187855196517 -0.12372767750402025 -14.579892586040968 -38.59886706677235 19.105129019053795 15.634056497531159 -29.926986102246595 6.208469005440222 39.685292854712294 0.0 0.0 0.0
